<?xml version="1.0" encoding="utf-8"?>
<!-- Generator: Adobe Illustrator 24.1.2, SVG Export Plug-In . SVG Version: 6.00 Build 0)  -->
<svg version="1.1" id="Layer_1" xmlns="http://www.w3.org/2000/svg" xmlns:xlink="http://www.w3.org/1999/xlink" x="0px" y="0px"
	 viewBox="0 0 842 259" style="enable-background:new 0 0 842 259;" xml:space="preserve">
<style type="text/css">
	.st0{fill:none;stroke:url(#XMLID_3_);stroke-width:2;stroke-miterlimit:10;}
</style>
<linearGradient id="XMLID_3_" gradientUnits="userSpaceOnUse" x1="5.6066" y1="130.2813" x2="829.074" y2="130.2813">
	<stop  offset="5.618000e-03" style="stop-color:#FBC926"/>
	<stop  offset="0.2528" style="stop-color:#E3CB83"/>
	<stop  offset="0.2553" style="stop-color:#E3CA82"/>
	<stop  offset="0.3547" style="stop-color:#D5B25E"/>
	<stop  offset="0.4476" style="stop-color:#CBA043"/>
	<stop  offset="0.5306" style="stop-color:#C59634"/>
	<stop  offset="0.5955" style="stop-color:#C3922E"/>
	<stop  offset="0.7085" style="stop-color:#D8B359"/>
	<stop  offset="0.8138" style="stop-color:#E8CC7B"/>
	<stop  offset="0.8708" style="stop-color:#EED688"/>
	<stop  offset="0.8995" style="stop-color:#F0DB91"/>
	<stop  offset="0.9455" style="stop-color:#F6E7A8"/>
	<stop  offset="1" style="stop-color:#FFFBCC"/>
</linearGradient>
<path id="XMLID_1_" class="st0" d="M809.7,255.9c0,0,51.7-57.9-18.2-64.4c-131.5-12.1-92.6,40-92.6,40s47.4,52.1,71.3-11
	c24.7-65.3-105.9-57.6-105.9-57.6l-526.3,3.4c0,0-3.4-3.4,0-17.7c3.4-14.3,532.2,2,532.2,2s-0.5,6.1-2,9.3s4.4-3.4,6.4-12.3
	c2-8.8-53.1-80.6-53.1-80.6s-349.6,3-398,0c0,0-68.3,66.8-80.1,74.2c-11.8,7.4,109.1-7.4,109.1-7.4s312-9.8,334.2-2.5
	c0,0-19.6-31.7-25-49.9c0,0-3.9,11.1-6.8,19c0,0-207-4.9-267.5,0.5c0,0-27,30.3-34.2,31.5c0,0,302.2-7.6,332.7-1.6
	c0,0-28.1-26.2-31.1-30.3l4.8-22.9c0,0-74.4,3.7-276.9,1.2c0,0,1,16.8,3.7,21.7c0,0-19.2,25.3-33.8,32.6c0,0,26.9-47.4,29.4-55.2
	s-55.6-10.6-58.3-10.5c-2.7,0.2-96.1,11.2-117.6-29.3s67.2-41,81.7-18.2c14.6,22.8-9.7,75-117.4,76.5S23.9,42.9,23.9,42.9"/>
</svg>
