<?xml version="1.0" encoding="utf-8"?>
<!-- Generator: Adobe Illustrator 26.0.1, SVG Export Plug-In . SVG Version: 6.00 Build 0)  -->
<svg version="1.1" id="Layer_1" xmlns="http://www.w3.org/2000/svg" xmlns:xlink="http://www.w3.org/1999/xlink" x="0px" y="0px"
	 viewBox="0 0 1366 768" style="enable-background:new 0 0 1366 768;" xml:space="preserve">
<style type="text/css">
	.st0{fill:#D4AF37;}
</style>
<g>
	<g>
		<path d="M130.22,473.87c-0.12-1.39,0.17-2.09,0.84-2.09c8.03,0,13.95-0.58,17.74-1.74c3.79-1.16,6.41-3.42,7.87-6.78
			c1.45-3.36,2.18-8.52,2.18-15.48V286.7c-0.22-6.96-1-12.06-2.34-15.31c-1.34-3.25-3.85-5.51-7.53-6.78
			c-3.68-1.27-9.54-1.91-17.58-1.91c-0.45,0-0.73-0.7-0.84-2.09c-0.11-1.39,0.17-2.09,0.84-2.09l14.73,0.35
			c8.48,0.47,15.51,0.7,21.09,0.7c5.58,0,12.83-0.23,21.76-0.7l15.4-0.35c0.44,0,0.67,0.7,0.67,2.09s-0.23,2.09-0.67,2.09
			c-8.26,0-14.29,0.64-18.08,1.91c-3.8,1.28-6.36,3.6-7.7,6.96c-1.34,3.36-2.12,8.52-2.34,15.48v159.33
			c0.22,6.96,0.95,12,2.18,15.13c1.22,3.13,3.68,5.28,7.36,6.44c3.68,1.16,9.54,1.74,17.58,1.74h43.85
			c12.72,0,22.15-3.88,28.29-11.65c6.14-7.77,10.21-18.84,12.22-33.22c0-0.7,0.55-1.04,1.67-1.04c0.67,0,1.28,0.12,1.84,0.35
			c0.55,0.23,0.84,0.58,0.84,1.04c-1.56,14.15-2.34,29.34-2.34,45.57c0,1.86-0.45,3.19-1.34,4c-0.89,0.82-2.34,1.22-4.35,1.22
			H131.06C130.61,475.95,130.33,475.26,130.22,473.87z"/>
		<path d="M339,257c-4,18,29,57,27,73c-3.65,29.2-47,30-54,0C306.7,307.3,339.88,253.02,339,257z"/>
		<path d="M636.89,473.87c0,1.39-0.33,2.09-1,2.09c-3.57,0-9.15-0.23-16.74-0.7c-8.48-0.46-15.18-0.7-20.09-0.7
			c-4.91,0-11.16,0.23-18.75,0.7c-7.15,0.47-12.5,0.7-16.07,0.7c-0.89,0-1.34-0.7-1.34-2.09s0.44-2.09,1.34-2.09
			c8.48,0,14.4-0.81,17.74-2.43c3.35-1.62,5.02-4.52,5.02-8.7c0-3.48-1-8.12-3.01-13.92l-30.46-88.71h-56.91l-28.12,71.66
			c-4.24,11.13-6.36,19.83-6.36,26.09c0,6.26,2.01,10.5,6.03,12.7c4.02,2.21,10.26,3.3,18.75,3.3c0.89,0,1.34,0.7,1.34,2.09
			s-0.56,2.09-1.67,2.09c-2.68,0-7.81-0.23-15.4-0.7c-8.93-0.46-15.73-0.7-20.42-0.7c-5.36,0-11.61,0.23-18.75,0.7
			c-6.25,0.47-11.38,0.7-15.4,0.7c-0.89,0-1.34-0.7-1.34-2.09s0.45-2.09,1.34-2.09c16.29,0,29.57-12.52,39.84-37.57l72.98-179.16
			c0.44-0.92,1.45-1.39,3.01-1.39c2.01,0,3.35,0.58,4.02,1.74l65.62,191.34c2.45,6.96,4.8,12.12,7.03,15.48
			c2.23,3.36,5.36,5.8,9.37,7.31c4.02,1.51,9.82,2.26,17.41,2.26C636.56,471.78,636.89,472.47,636.89,473.87z M499.3,351.41h51.89
			l-24.1-70.27L499.3,351.41z"/>
		<path d="M822.02,260.61c0,1.39-0.45,2.09-1.34,2.09c-7.15,0-13.17,1.69-18.08,5.04c-4.91,3.36-8.93,9.69-12.05,18.96l-68.63,188.9
			c-0.22,0.92-1.34,1.39-3.35,1.39c-2.46,0-3.8-0.47-4.02-1.39l-77-188.21c-3.35-9.04-7.09-15.42-11.21-19.13
			c-4.13-3.71-9.43-5.57-15.9-5.57c-0.67,0-1.06-0.7-1.17-2.09c-0.12-1.39,0.28-2.09,1.17-2.09l13.06,0.35
			c6.25,0.47,10.6,0.7,13.06,0.7c6.03,0,13.28-0.23,21.76-0.7l13.39-0.35c0.89,0,1.34,0.7,1.34,2.09s-0.45,2.09-1.34,2.09
			c-12.95,0-19.42,3.71-19.42,11.13c0,3.25,0.78,6.61,2.34,10.09l69.97,168.03l58.92-167.33c1.34-3.94,2.01-7.31,2.01-10.09
			c0-4.17-1.84-7.19-5.52-9.04c-3.68-1.85-9.88-2.78-18.58-2.78c-0.45,0-0.67-0.7-0.67-2.09s0.22-2.09,0.67-2.09l12.39,0.35
			c7.14,0.47,13.39,0.7,18.75,0.7c4.24,0,9.04-0.23,14.4-0.7l13.73-0.35C821.57,258.53,822.02,259.22,822.02,260.61z"/>
		<path d="M878.43,466.04c-15.06-9.39-26.73-22.2-34.98-38.44c-8.26-16.23-12.39-34.32-12.39-54.27c0-22.03,5.07-42.09,15.23-60.18
			c10.15-18.09,23.94-32.35,41.34-42.79c17.41-10.44,36.71-15.65,57.92-15.65c19.86,0,37.21,4.58,52.06,13.74
			c14.84,9.16,26.28,21.8,34.31,37.92c8.03,16.12,12.05,34.27,12.05,54.44c0,22.96-5.14,43.54-15.4,61.75
			c-10.27,18.21-24.05,32.35-41.34,42.44c-17.3,10.09-36.21,15.13-56.74,15.13C910.84,480.13,893.49,475.43,878.43,466.04z
			 M988.73,459.08c12.27-8,21.76-19.19,28.46-33.57c6.7-14.38,10.04-30.96,10.04-49.75c0-21.33-4.13-40.58-12.39-57.75
			c-8.26-17.16-19.64-30.61-34.15-40.35c-14.51-9.74-30.8-14.61-48.88-14.61c-16.29,0-30.86,3.95-43.69,11.83
			c-12.84,7.89-22.82,19.13-29.96,33.74c-7.15,14.61-10.71,31.66-10.71,51.14c0,21.11,4.29,40.13,12.89,57.05
			c8.59,16.93,20.36,30.21,35.32,39.83c14.95,9.63,31.58,14.44,49.88,14.44C962.06,471.08,976.46,467.08,988.73,459.08z
			 M1104.4,560.49c-18.41-4.87-41.46-12.06-69.13-21.57c-25-8.35-45.25-14.61-60.76-18.79c-15.51-4.17-29.07-6.26-40.67-6.26
			c-8.7,0-17.74,1.16-27.12,3.48c-9.37,2.32-16.74,6.14-22.1,11.48h-0.33c-0.45,0-1-0.52-1.67-1.57c-0.67-1.04-0.89-1.68-0.67-1.91
			c7.14-7.19,16.35-13.11,27.62-17.74c11.27-4.64,23.27-6.96,35.99-6.96c12.05,0,25.33,1.97,39.84,5.91
			c14.5,3.94,32.58,9.86,54.23,17.74c28.12,9.74,52,17.16,71.64,22.26c19.64,5.1,39.17,7.65,58.58,7.65c7.81,0,13.89-0.7,18.25-2.09
			c4.35-1.39,8.54-3.71,12.55-6.96c0.22-0.23,0.55-0.35,1-0.35c0.67,0,1.28,0.46,1.84,1.39c0.55,0.92,0.5,1.51-0.17,1.74
			c-6.25,6.49-13.22,11.42-20.92,14.79c-7.7,3.36-16.91,5.04-27.62,5.04C1139.6,567.79,1122.81,565.36,1104.4,560.49z"/>
		<path d="M1320,476c1.39,0-35.44-0.05-36.33-0.05h-35.15c-5.81,0-16.57-10.03-32.31-30.09c-15.73-20.06-34.87-48.06-57.41-84.01
			c-7.81,2.32-15.18,3.48-22.09,3.48c-4.24,0-8.82-0.23-13.73-0.7l-0.67,83.14c0.22,7.19,1,12.41,2.34,15.66
			c1.34,3.25,3.9,5.45,7.7,6.61c3.79,1.16,10.04,1.74,18.75,1.74c0.89,0,27.9,1.83,27.9,3.22s-26.9,0.95-27.57,0.95
			c-6.7,0-11.94-0.11-15.73-0.35l-22.76-0.35l-22.09,0.35c-4.02,0.23-9.49,0.35-16.4,0.35c-0.89,0-21.43,0.44-21.43-0.95
			s20.54-3.22,21.43-3.22c8.7,0,15.17-0.64,19.42-1.91c4.24-1.27,7.2-3.53,8.87-6.78c1.67-3.25,2.51-8.35,2.51-15.31V286.7
			c-0.22-6.96-1.06-12.06-2.51-15.31c-1.45-3.25-4.18-5.51-8.2-6.78c-4.02-1.27-10.38-1.91-19.08-1.91c-0.89,0-1.34-0.7-1.34-2.09
			s0.45-2.09,1.34-2.09l16.4,0.35c8.92,0.47,16.18,0.7,21.76,0.7c3.79,0,7.48-0.11,11.05-0.35c3.57-0.23,6.7-0.46,9.37-0.7
			c6.7-0.7,12.72-1.04,18.08-1.04c17.41,0,30.8,3.83,40.17,11.48c9.37,7.65,14.06,18.32,14.06,32.01c0,11.13-3.07,21.57-9.21,31.31
			c-6.14,9.74-14.34,17.63-24.61,23.66c19.19,29.69,35.2,52.76,48.04,69.23c12.83,16.47,24.21,28.35,34.15,35.66
			c9.93,7.31,19.71,9.42,28.96,10.96C1285,472,1316,476,1320,476z M1142.39,357.67c16.07,0,27.62-3.53,34.65-10.61
			c7.03-7.07,10.54-18.49,10.54-34.27c0-17.86-3.85-30.79-11.55-38.79c-7.7-8-18.25-12-31.64-12c-6.25,0-10.77,0.47-13.56,1.39
			c-2.79,0.93-4.85,3.13-6.19,6.61c-1.34,3.48-2.12,9.28-2.34,17.39v68.88C1131.23,357.21,1137.93,357.67,1142.39,357.67z"/>
	</g>
	<g>
		<path class="st0" d="M130.22,473.87c-0.12-1.39,0.17-2.09,0.84-2.09c8.03,0,13.95-0.58,17.74-1.74c3.79-1.16,6.41-3.42,7.87-6.78
			c1.45-3.36,2.18-8.52,2.18-15.48V286.7c-0.22-6.96-1-12.06-2.34-15.31c-1.34-3.25-3.85-5.51-7.53-6.78
			c-3.68-1.27-9.54-1.91-17.58-1.91c-0.45,0-0.73-0.7-0.84-2.09c-0.11-1.39,0.17-2.09,0.84-2.09l14.73,0.35
			c8.48,0.47,15.51,0.7,21.09,0.7c5.58,0,12.83-0.23,21.76-0.7l15.4-0.35c0.44,0,0.67,0.7,0.67,2.09s-0.23,2.09-0.67,2.09
			c-8.26,0-14.29,0.64-18.08,1.91c-3.8,1.28-6.36,3.6-7.7,6.96c-1.34,3.36-2.12,8.52-2.34,15.48v159.33
			c0.22,6.96,0.95,12,2.18,15.13c1.22,3.13,3.68,5.28,7.36,6.44c3.68,1.16,9.54,1.74,17.58,1.74h43.85
			c12.72,0,22.15-3.88,28.29-11.65c6.14-7.77,10.21-18.84,12.22-33.22c0-0.7,0.55-1.04,1.67-1.04c0.67,0,1.28,0.12,1.84,0.35
			c0.55,0.23,0.84,0.58,0.84,1.04c-1.56,14.15-2.34,29.34-2.34,45.57c0,1.86-0.45,3.19-1.34,4c-0.89,0.82-2.34,1.22-4.35,1.22
			H131.06C130.61,475.95,130.33,475.26,130.22,473.87z"/>
		<path class="st0" d="M339,257c-4,18,29,57,27,73c-3.65,29.2-47,30-54,0C306.7,307.3,339.88,253.02,339,257z"/>
		<path class="st0" d="M636.89,473.87c0,1.39-0.33,2.09-1,2.09c-3.57,0-9.15-0.23-16.74-0.7c-8.48-0.46-15.18-0.7-20.09-0.7
			c-4.91,0-11.16,0.23-18.75,0.7c-7.15,0.47-12.5,0.7-16.07,0.7c-0.89,0-1.34-0.7-1.34-2.09s0.44-2.09,1.34-2.09
			c8.48,0,14.4-0.81,17.74-2.43c3.35-1.62,5.02-4.52,5.02-8.7c0-3.48-1-8.12-3.01-13.92l-30.46-88.71h-56.91l-28.12,71.66
			c-4.24,11.13-6.36,19.83-6.36,26.09c0,6.26,2.01,10.5,6.03,12.7c4.02,2.21,10.26,3.3,18.75,3.3c0.89,0,1.34,0.7,1.34,2.09
			s-0.56,2.09-1.67,2.09c-2.68,0-7.81-0.23-15.4-0.7c-8.93-0.46-15.73-0.7-20.42-0.7c-5.36,0-11.61,0.23-18.75,0.7
			c-6.25,0.47-11.38,0.7-15.4,0.7c-0.89,0-1.34-0.7-1.34-2.09s0.45-2.09,1.34-2.09c16.29,0,29.57-12.52,39.84-37.57l72.98-179.16
			c0.44-0.92,1.45-1.39,3.01-1.39c2.01,0,3.35,0.58,4.02,1.74l65.62,191.34c2.45,6.96,4.8,12.12,7.03,15.48
			c2.23,3.36,5.36,5.8,9.37,7.31c4.02,1.51,9.82,2.26,17.41,2.26C636.56,471.78,636.89,472.47,636.89,473.87z M499.3,351.41h51.89
			l-24.1-70.27L499.3,351.41z"/>
		<path class="st0" d="M822.02,260.61c0,1.39-0.45,2.09-1.34,2.09c-7.15,0-13.17,1.69-18.08,5.04c-4.91,3.36-8.93,9.69-12.05,18.96
			l-68.63,188.9c-0.22,0.92-1.34,1.39-3.35,1.39c-2.46,0-3.8-0.47-4.02-1.39l-77-188.21c-3.35-9.04-7.09-15.42-11.21-19.13
			c-4.13-3.71-9.43-5.57-15.9-5.57c-0.67,0-1.06-0.7-1.17-2.09c-0.12-1.39,0.28-2.09,1.17-2.09l13.06,0.35
			c6.25,0.47,10.6,0.7,13.06,0.7c6.03,0,13.28-0.23,21.76-0.7l13.39-0.35c0.89,0,1.34,0.7,1.34,2.09s-0.45,2.09-1.34,2.09
			c-12.95,0-19.42,3.71-19.42,11.13c0,3.25,0.78,6.61,2.34,10.09l69.97,168.03l58.92-167.33c1.34-3.94,2.01-7.31,2.01-10.09
			c0-4.17-1.84-7.19-5.52-9.04c-3.68-1.85-9.88-2.78-18.58-2.78c-0.45,0-0.67-0.7-0.67-2.09s0.22-2.09,0.67-2.09l12.39,0.35
			c7.14,0.47,13.39,0.7,18.75,0.7c4.24,0,9.04-0.23,14.4-0.7l13.73-0.35C821.57,258.53,822.02,259.22,822.02,260.61z"/>
		<path class="st0" d="M878.43,466.04c-15.06-9.39-26.73-22.2-34.98-38.44c-8.26-16.23-12.39-34.32-12.39-54.27
			c0-22.03,5.07-42.09,15.23-60.18c10.15-18.09,23.94-32.35,41.34-42.79c17.41-10.44,36.71-15.65,57.92-15.65
			c19.86,0,37.21,4.58,52.06,13.74c14.84,9.16,26.28,21.8,34.31,37.92c8.03,16.12,12.05,34.27,12.05,54.44
			c0,22.96-5.14,43.54-15.4,61.75c-10.27,18.21-24.05,32.35-41.34,42.44c-17.3,10.09-36.21,15.13-56.74,15.13
			C910.84,480.13,893.49,475.43,878.43,466.04z M988.73,459.08c12.27-8,21.76-19.19,28.46-33.57c6.7-14.38,10.04-30.96,10.04-49.75
			c0-21.33-4.13-40.58-12.39-57.75c-8.26-17.16-19.64-30.61-34.15-40.35c-14.51-9.74-30.8-14.61-48.88-14.61
			c-16.29,0-30.86,3.95-43.69,11.83c-12.84,7.89-22.82,19.13-29.96,33.74c-7.15,14.61-10.71,31.66-10.71,51.14
			c0,21.11,4.29,40.13,12.89,57.05c8.59,16.93,20.36,30.21,35.32,39.83c14.95,9.63,31.58,14.44,49.88,14.44
			C962.06,471.08,976.46,467.08,988.73,459.08z M1104.4,560.49c-18.41-4.87-41.46-12.06-69.13-21.57
			c-25-8.35-45.25-14.61-60.76-18.79c-15.51-4.17-29.07-6.26-40.67-6.26c-8.7,0-17.74,1.16-27.12,3.48
			c-9.37,2.32-16.74,6.14-22.1,11.48h-0.33c-0.45,0-1-0.52-1.67-1.57c-0.67-1.04-0.89-1.68-0.67-1.91
			c7.14-7.19,16.35-13.11,27.62-17.74c11.27-4.64,23.27-6.96,35.99-6.96c12.05,0,25.33,1.97,39.84,5.91
			c14.5,3.94,32.58,9.86,54.23,17.74c28.12,9.74,52,17.16,71.64,22.26c19.64,5.1,39.17,7.65,58.58,7.65c7.81,0,13.89-0.7,18.25-2.09
			c4.35-1.39,8.54-3.71,12.55-6.96c0.22-0.23,0.55-0.35,1-0.35c0.67,0,1.28,0.46,1.84,1.39c0.55,0.92,0.5,1.51-0.17,1.74
			c-6.25,6.49-13.22,11.42-20.92,14.79c-7.7,3.36-16.91,5.04-27.62,5.04C1139.6,567.79,1122.81,565.36,1104.4,560.49z"/>
		<path class="st0" d="M1320,476c1.39,0-35.44-0.05-36.33-0.05h-35.15c-5.81,0-16.57-10.03-32.31-30.09
			c-15.73-20.06-34.87-48.06-57.41-84.01c-7.81,2.32-15.18,3.48-22.09,3.48c-4.24,0-8.82-0.23-13.73-0.7l-0.67,83.14
			c0.22,7.19,1,12.41,2.34,15.66c1.34,3.25,3.9,5.45,7.7,6.61c3.79,1.16,10.04,1.74,18.75,1.74c0.89,0,27.9,1.83,27.9,3.22
			s-26.9,0.95-27.57,0.95c-6.7,0-11.94-0.11-15.73-0.35l-22.76-0.35l-22.09,0.35c-4.02,0.23-9.49,0.35-16.4,0.35
			c-0.89,0-21.43,0.44-21.43-0.95s20.54-3.22,21.43-3.22c8.7,0,15.17-0.64,19.42-1.91c4.24-1.27,7.2-3.53,8.87-6.78
			c1.67-3.25,2.51-8.35,2.51-15.31V286.7c-0.22-6.96-1.06-12.06-2.51-15.31c-1.45-3.25-4.18-5.51-8.2-6.78
			c-4.02-1.27-10.38-1.91-19.08-1.91c-0.89,0-1.34-0.7-1.34-2.09s0.45-2.09,1.34-2.09l16.4,0.35c8.92,0.47,16.18,0.7,21.76,0.7
			c3.79,0,7.48-0.11,11.05-0.35c3.57-0.23,6.7-0.46,9.37-0.7c6.7-0.7,12.72-1.04,18.08-1.04c17.41,0,30.8,3.83,40.17,11.48
			c9.37,7.65,14.06,18.32,14.06,32.01c0,11.13-3.07,21.57-9.21,31.31c-6.14,9.74-14.34,17.63-24.61,23.66
			c19.19,29.69,35.2,52.76,48.04,69.23c12.83,16.47,24.21,28.35,34.15,35.66c9.93,7.31,19.71,9.42,28.96,10.96
			C1285,472,1316,476,1320,476z M1142.39,357.67c16.07,0,27.62-3.53,34.65-10.61c7.03-7.07,10.54-18.49,10.54-34.27
			c0-17.86-3.85-30.79-11.55-38.79c-7.7-8-18.25-12-31.64-12c-6.25,0-10.77,0.47-13.56,1.39c-2.79,0.93-4.85,3.13-6.19,6.61
			c-1.34,3.48-2.12,9.28-2.34,17.39v68.88C1131.23,357.21,1137.93,357.67,1142.39,357.67z"/>
	</g>
</g>
</svg>
