<?xml version="1.0" encoding="utf-8"?>
<!-- Generator: Adobe Illustrator 24.1.2, SVG Export Plug-In . SVG Version: 6.00 Build 0)  -->
<svg version="1.1" xmlns="http://www.w3.org/2000/svg" xmlns:xlink="http://www.w3.org/1999/xlink" x="0px" y="0px"
	 viewBox="0 0 1210.3 339.2" style="enable-background:new 0 0 1210.3 339.2;" xml:space="preserve">
<g id="Layer_1">
	<g>
		<g>
			<path d="M0,238.9c-0.1-1.5,0.2-2.3,0.9-2.3c8.7,0,15.1-0.6,19.2-1.9c4.1-1.3,6.9-3.7,8.5-7.3c1.6-3.6,2.3-9.2,2.3-16.7V36.8
				c-0.2-7.5-1.1-13-2.5-16.5c-1.4-3.5-4.2-5.9-8.1-7.3c-4-1.4-10.3-2.1-19-2.1c-0.5,0-0.8-0.8-0.9-2.3C0.3,7.1,0.6,6.3,1.3,6.3
				l15.9,0.4C26.4,7.2,33.9,7.5,40,7.5c6,0,13.9-0.2,23.5-0.8l16.6-0.4c0.5,0,0.7,0.8,0.7,2.3s-0.2,2.3-0.7,2.3
				c-8.9,0-15.4,0.7-19.5,2.1c-4.1,1.4-6.9,3.9-8.3,7.5c-1.4,3.6-2.3,9.2-2.5,16.7v172c0.2,7.5,1,13,2.3,16.3c1.3,3.4,4,5.7,8,6.9
				c4,1.3,10.3,1.9,19,1.9h47.4c13.7,0,23.9-4.2,30.5-12.6c6.6-8.4,11-20.3,13.2-35.9c0-0.8,0.6-1.1,1.8-1.1c0.7,0,1.4,0.1,2,0.4
				c0.6,0.3,0.9,0.6,0.9,1.1c-1.7,15.3-2.5,31.7-2.5,49.2c0,2-0.5,3.4-1.4,4.3c-1,0.9-2.5,1.3-4.7,1.3H0.9
				C0.4,241.1,0.1,240.4,0,238.9z"/>
			<path d="M196.3,9c-7.2,18.6,33.5,57.1,29.2,78.8c-6.2,31.2-50.7,32.4-58.3,0C161.4,63.3,199.2,1.5,196.3,9z"/>
			<path d="M483.4,237.8c0,1.5-0.4,2.3-1.1,2.3c-3.9,0-9.9-0.2-18.1-0.8c-9.2-0.5-16.4-0.8-21.7-0.8c-5.3,0-12.1,0.3-20.2,0.8
				c-7.7,0.5-13.5,0.8-17.4,0.8c-1,0-1.4-0.8-1.4-2.3c0-1.5,0.5-2.3,1.4-2.3c9.2,0,15.5-0.9,19.2-2.6c3.6-1.7,5.4-4.9,5.4-9.4
				c0-3.8-1.1-8.8-3.3-15l-32.9-95.8h-61.5l-30.4,77.4c-4.6,12-6.9,21.4-6.9,28.2c0,6.8,2.2,11.3,6.5,13.7
				c4.3,2.4,11.1,3.6,20.2,3.6c1,0,1.4,0.8,1.4,2.3c0,1.5-0.6,2.3-1.8,2.3c-2.9,0-8.4-0.2-16.6-0.8c-9.6-0.5-17-0.8-22.1-0.8
				c-5.8,0-12.5,0.3-20.2,0.8c-6.7,0.5-12.3,0.8-16.6,0.8c-1,0-1.4-0.8-1.4-2.3c0-1.5,0.5-2.3,1.4-2.3c17.6,0,31.9-13.5,43-40.6
				L367.4,1.5c0.5-1,1.6-1.5,3.3-1.5c2.2,0,3.6,0.6,4.3,1.9l70.8,206.6c2.6,7.5,5.2,13.1,7.6,16.7c2.4,3.6,5.8,6.3,10.1,7.9
				c4.3,1.6,10.6,2.4,18.8,2.4C483,235.5,483.4,236.3,483.4,237.8z M334.8,105.6h56l-26-75.9L334.8,105.6z"/>
			<path d="M672.5,7.5c0,1.5-0.5,2.3-1.4,2.3c-7.7,0-14.2,1.8-19.5,5.4c-5.3,3.6-9.6,10.5-13,20.5l-74.1,204c-0.2,1-1.4,1.5-3.6,1.5
				c-2.7,0-4.1-0.5-4.3-1.5L473.3,36.4c-3.6-9.8-7.7-16.7-12.1-20.7c-4.5-4-10.2-6-17.2-6c-0.7,0-1.1-0.8-1.3-2.3
				c-0.1-1.5,0.3-2.3,1.3-2.3l14.1,0.4c6.7,0.5,11.4,0.8,14.1,0.8c6.5,0,14.3-0.2,23.5-0.8l14.5-0.4c1,0,1.4,0.8,1.4,2.3
				s-0.5,2.3-1.4,2.3c-14,0-21,4-21,12c0,3.5,0.8,7.1,2.5,10.9l75.5,181.4l63.6-180.7c1.4-4.3,2.2-7.9,2.2-10.9c0-4.5-2-7.8-6-9.8
				c-4-2-10.7-3-20.1-3c-0.5,0-0.7-0.8-0.7-2.3s0.2-2.3,0.7-2.3l13.4,0.4c7.7,0.5,14.5,0.8,20.2,0.8c4.6,0,9.8-0.2,15.5-0.8
				l14.8-0.4C672,5.3,672.5,6,672.5,7.5z"/>
			<path d="M733.4,229.3c-16.3-10.1-28.9-24-37.8-41.5c-8.9-17.5-13.4-37.1-13.4-58.6c0-23.8,5.5-45.5,16.4-65
				c11-19.5,25.8-34.9,44.6-46.2C762.2,6.8,783,1.1,805.9,1.1c21.4,0,40.2,4.9,56.2,14.8c16,9.9,28.4,23.5,37.1,40.9
				c8.7,17.4,13,37,13,58.8c0,24.8-5.5,47-16.6,66.7c-11.1,19.7-26,34.9-44.6,45.8c-18.7,10.9-39.1,16.3-61.3,16.3
				C768.4,244.5,749.7,239.5,733.4,229.3z M852.5,221.8c13.3-8.6,23.5-20.7,30.7-36.2c7.2-15.5,10.8-33.4,10.8-53.7
				c0-23-4.5-43.8-13.4-62.4c-8.9-18.5-21.2-33.1-36.9-43.6c-15.7-10.5-33.3-15.8-52.8-15.8c-17.6,0-33.3,4.3-47.2,12.8
				c-13.9,8.5-24.6,20.7-32.4,36.4c-7.7,15.8-11.6,34.2-11.6,55.2c0,22.8,4.6,43.3,13.9,61.6c9.3,18.3,22,32.6,38.1,43
				c16.1,10.4,34.1,15.6,53.9,15.6C823.7,234.8,839.3,230.5,852.5,221.8z M977.4,331.3c-19.9-5.3-44.8-13-74.6-23.3
				c-27-9-48.9-15.8-65.6-20.3c-16.8-4.5-31.4-6.8-43.9-6.8c-9.4,0-19.2,1.3-29.3,3.8c-10.1,2.5-18.1,6.6-23.9,12.4h-0.4
				c-0.5,0-1.1-0.6-1.8-1.7c-0.7-1.1-1-1.8-0.7-2.1c7.7-7.8,17.6-14.2,29.8-19.2c12.2-5,25.1-7.5,38.9-7.5c13,0,27.3,2.1,43,6.4
				c15.7,4.3,35.2,10.6,58.6,19.2c30.4,10.5,56.1,18.5,77.4,24c21.2,5.5,42.3,8.3,63.3,8.3c8.4,0,15-0.8,19.7-2.3
				c4.7-1.5,9.2-4,13.6-7.5c0.2-0.3,0.6-0.4,1.1-0.4c0.7,0,1.4,0.5,2,1.5c0.6,1,0.5,1.6-0.2,1.9c-6.7,7-14.3,12.3-22.6,16
				c-8.3,3.6-18.3,5.4-29.8,5.4C1015.4,339.2,997.3,336.6,977.4,331.3z"/>
			<path d="M1210.2,240.1c1.5,0-38.3-0.1-39.2-0.1h-38c-6.3,0-17.9-10.8-34.9-32.5c-17-21.7-37.7-51.9-62-90.7
				c-8.4,2.5-16.4,3.8-23.9,3.8c-4.6,0-9.5-0.2-14.8-0.8l-0.7,89.8c0.2,7.8,1.1,13.4,2.5,16.9c1.4,3.5,4.2,5.9,8.3,7.1
				c4.1,1.3,10.8,1.9,20.2,1.9c1,0,30.1,2,30.1,3.5c0,1.5-29,1-29.8,1c-7.2,0-12.9-0.1-17-0.4l-24.6-0.4l-23.9,0.4
				c-4.3,0.3-10.2,0.4-17.7,0.4c-1,0-23.1,0.5-23.1-1c0-1.5,22.2-3.5,23.1-3.5c9.4,0,16.4-0.7,21-2.1c4.6-1.4,7.8-3.8,9.6-7.3
				c1.8-3.5,2.7-9,2.7-16.5V35.7c-0.2-7.5-1.1-13-2.7-16.5c-1.6-3.5-4.5-5.9-8.9-7.3c-4.3-1.4-11.2-2.1-20.6-2.1
				c-1,0-1.4-0.8-1.4-2.3s0.5-2.3,1.4-2.3l17.7,0.4c9.6,0.5,17.5,0.8,23.5,0.8c4.1,0,8.1-0.1,11.9-0.4c3.9-0.2,7.2-0.5,10.1-0.8
				c7.2-0.8,13.7-1.1,19.5-1.1c18.8,0,33.3,4.1,43.4,12.4c10.1,8.3,15.2,19.8,15.2,34.6c0,12-3.3,23.3-9.9,33.8
				c-6.6,10.5-15.5,19-26.6,25.5c20.7,32.1,38,57,51.9,74.8c13.9,17.8,26.1,30.6,36.9,38.5c10.7,7.9,21.3,10.2,31.3,11.8
				C1172.4,235.8,1205.9,240.1,1210.2,240.1z M1018.4,112.3c17.4,0,29.8-3.8,37.4-11.5c7.6-7.6,11.4-20,11.4-37
				c0-19.3-4.2-33.2-12.5-41.9c-8.3-8.6-19.7-13-34.2-13c-6.7,0-11.6,0.5-14.6,1.5c-3,1-5.2,3.4-6.7,7.1c-1.4,3.8-2.3,10-2.5,18.8
				v74.4C1006.4,111.8,1013.6,112.3,1018.4,112.3z"/>
		</g>
		<g>
			<path d="M0,238.9c-0.1-1.5,0.2-2.3,0.9-2.3c8.7,0,15.1-0.6,19.2-1.9c4.1-1.3,6.9-3.7,8.5-7.3c1.6-3.6,2.3-9.2,2.3-16.7V36.8
				c-0.2-7.5-1.1-13-2.5-16.5c-1.4-3.5-4.2-5.9-8.1-7.3c-4-1.4-10.3-2.1-19-2.1c-0.5,0-0.8-0.8-0.9-2.3C0.3,7.1,0.6,6.3,1.3,6.3
				l15.9,0.4C26.4,7.2,33.9,7.5,40,7.5c6,0,13.9-0.2,23.5-0.8l16.6-0.4c0.5,0,0.7,0.8,0.7,2.3s-0.2,2.3-0.7,2.3
				c-8.9,0-15.4,0.7-19.5,2.1c-4.1,1.4-6.9,3.9-8.3,7.5c-1.4,3.6-2.3,9.2-2.5,16.7v172c0.2,7.5,1,13,2.3,16.3c1.3,3.4,4,5.7,8,6.9
				c4,1.3,10.3,1.9,19,1.9h47.4c13.7,0,23.9-4.2,30.5-12.6c6.6-8.4,11-20.3,13.2-35.9c0-0.8,0.6-1.1,1.8-1.1c0.7,0,1.4,0.1,2,0.4
				c0.6,0.3,0.9,0.6,0.9,1.1c-1.7,15.3-2.5,31.7-2.5,49.2c0,2-0.5,3.4-1.4,4.3c-1,0.9-2.5,1.3-4.7,1.3H0.9
				C0.4,241.1,0.1,240.4,0,238.9z"/>
			<path d="M196.3,9c-7.2,18.6,33.5,57.1,29.2,78.8c-6.2,31.2-50.7,32.4-58.3,0C161.4,63.3,199.2,1.5,196.3,9z"/>
			<path d="M483.4,237.8c0,1.5-0.4,2.3-1.1,2.3c-3.9,0-9.9-0.2-18.1-0.8c-9.2-0.5-16.4-0.8-21.7-0.8c-5.3,0-12.1,0.3-20.2,0.8
				c-7.7,0.5-13.5,0.8-17.4,0.8c-1,0-1.4-0.8-1.4-2.3c0-1.5,0.5-2.3,1.4-2.3c9.2,0,15.5-0.9,19.2-2.6c3.6-1.7,5.4-4.9,5.4-9.4
				c0-3.8-1.1-8.8-3.3-15l-32.9-95.8h-61.5l-30.4,77.4c-4.6,12-6.9,21.4-6.9,28.2c0,6.8,2.2,11.3,6.5,13.7
				c4.3,2.4,11.1,3.6,20.2,3.6c1,0,1.4,0.8,1.4,2.3c0,1.5-0.6,2.3-1.8,2.3c-2.9,0-8.4-0.2-16.6-0.8c-9.6-0.5-17-0.8-22.1-0.8
				c-5.8,0-12.5,0.3-20.2,0.8c-6.7,0.5-12.3,0.8-16.6,0.8c-1,0-1.4-0.8-1.4-2.3c0-1.5,0.5-2.3,1.4-2.3c17.6,0,31.9-13.5,43-40.6
				L367.4,1.5c0.5-1,1.6-1.5,3.3-1.5c2.2,0,3.6,0.6,4.3,1.9l70.8,206.6c2.6,7.5,5.2,13.1,7.6,16.7c2.4,3.6,5.8,6.3,10.1,7.9
				c4.3,1.6,10.6,2.4,18.8,2.4C483,235.5,483.4,236.3,483.4,237.8z M334.8,105.6h56l-26-75.9L334.8,105.6z"/>
			<path d="M672.5,7.5c0,1.5-0.5,2.3-1.4,2.3c-7.7,0-14.2,1.8-19.5,5.4c-5.3,3.6-9.6,10.5-13,20.5l-74.1,204c-0.2,1-1.4,1.5-3.6,1.5
				c-2.7,0-4.1-0.5-4.3-1.5L473.3,36.4c-3.6-9.8-7.7-16.7-12.1-20.7c-4.5-4-10.2-6-17.2-6c-0.7,0-1.1-0.8-1.3-2.3
				c-0.1-1.5,0.3-2.3,1.3-2.3l14.1,0.4c6.7,0.5,11.4,0.8,14.1,0.8c6.5,0,14.3-0.2,23.5-0.8l14.5-0.4c1,0,1.4,0.8,1.4,2.3
				s-0.5,2.3-1.4,2.3c-14,0-21,4-21,12c0,3.5,0.8,7.1,2.5,10.9l75.5,181.4l63.6-180.7c1.4-4.3,2.2-7.9,2.2-10.9c0-4.5-2-7.8-6-9.8
				c-4-2-10.7-3-20.1-3c-0.5,0-0.7-0.8-0.7-2.3s0.2-2.3,0.7-2.3l13.4,0.4c7.7,0.5,14.5,0.8,20.2,0.8c4.6,0,9.8-0.2,15.5-0.8
				l14.8-0.4C672,5.3,672.5,6,672.5,7.5z"/>
			<path d="M733.4,229.3c-16.3-10.1-28.9-24-37.8-41.5c-8.9-17.5-13.4-37.1-13.4-58.6c0-23.8,5.5-45.5,16.4-65
				c11-19.5,25.8-34.9,44.6-46.2C762.2,6.8,783,1.1,805.9,1.1c21.4,0,40.2,4.9,56.2,14.8c16,9.9,28.4,23.5,37.1,40.9
				c8.7,17.4,13,37,13,58.8c0,24.8-5.5,47-16.6,66.7c-11.1,19.7-26,34.9-44.6,45.8c-18.7,10.9-39.1,16.3-61.3,16.3
				C768.4,244.5,749.7,239.5,733.4,229.3z M852.5,221.8c13.3-8.6,23.5-20.7,30.7-36.2c7.2-15.5,10.8-33.4,10.8-53.7
				c0-23-4.5-43.8-13.4-62.4c-8.9-18.5-21.2-33.1-36.9-43.6c-15.7-10.5-33.3-15.8-52.8-15.8c-17.6,0-33.3,4.3-47.2,12.8
				c-13.9,8.5-24.6,20.7-32.4,36.4c-7.7,15.8-11.6,34.2-11.6,55.2c0,22.8,4.6,43.3,13.9,61.6c9.3,18.3,22,32.6,38.1,43
				c16.1,10.4,34.1,15.6,53.9,15.6C823.7,234.8,839.3,230.5,852.5,221.8z M977.4,331.3c-19.9-5.3-44.8-13-74.6-23.3
				c-27-9-48.9-15.8-65.6-20.3c-16.8-4.5-31.4-6.8-43.9-6.8c-9.4,0-19.2,1.3-29.3,3.8c-10.1,2.5-18.1,6.6-23.9,12.4h-0.4
				c-0.5,0-1.1-0.6-1.8-1.7c-0.7-1.1-1-1.8-0.7-2.1c7.7-7.8,17.6-14.2,29.8-19.2c12.2-5,25.1-7.5,38.9-7.5c13,0,27.3,2.1,43,6.4
				c15.7,4.3,35.2,10.6,58.6,19.2c30.4,10.5,56.1,18.5,77.4,24c21.2,5.5,42.3,8.3,63.3,8.3c8.4,0,15-0.8,19.7-2.3
				c4.7-1.5,9.2-4,13.6-7.5c0.2-0.3,0.6-0.4,1.1-0.4c0.7,0,1.4,0.5,2,1.5c0.6,1,0.5,1.6-0.2,1.9c-6.7,7-14.3,12.3-22.6,16
				c-8.3,3.6-18.3,5.4-29.8,5.4C1015.4,339.2,997.3,336.6,977.4,331.3z"/>
			<path d="M1210.2,240.1c1.5,0-38.3-0.1-39.2-0.1h-38c-6.3,0-17.9-10.8-34.9-32.5c-17-21.7-37.7-51.9-62-90.7
				c-8.4,2.5-16.4,3.8-23.9,3.8c-4.6,0-9.5-0.2-14.8-0.8l-0.7,89.8c0.2,7.8,1.1,13.4,2.5,16.9c1.4,3.5,4.2,5.9,8.3,7.1
				c4.1,1.3,10.8,1.9,20.2,1.9c1,0,30.1,2,30.1,3.5c0,1.5-29,1-29.8,1c-7.2,0-12.9-0.1-17-0.4l-24.6-0.4l-23.9,0.4
				c-4.3,0.3-10.2,0.4-17.7,0.4c-1,0-23.1,0.5-23.1-1c0-1.5,22.2-3.5,23.1-3.5c9.4,0,16.4-0.7,21-2.1c4.6-1.4,7.8-3.8,9.6-7.3
				c1.8-3.5,2.7-9,2.7-16.5V35.7c-0.2-7.5-1.1-13-2.7-16.5c-1.6-3.5-4.5-5.9-8.9-7.3c-4.3-1.4-11.2-2.1-20.6-2.1
				c-1,0-1.4-0.8-1.4-2.3s0.5-2.3,1.4-2.3l17.7,0.4c9.6,0.5,17.5,0.8,23.5,0.8c4.1,0,8.1-0.1,11.9-0.4c3.9-0.2,7.2-0.5,10.1-0.8
				c7.2-0.8,13.7-1.1,19.5-1.1c18.8,0,33.3,4.1,43.4,12.4c10.1,8.3,15.2,19.8,15.2,34.6c0,12-3.3,23.3-9.9,33.8
				c-6.6,10.5-15.5,19-26.6,25.5c20.7,32.1,38,57,51.9,74.8c13.9,17.8,26.1,30.6,36.9,38.5c10.7,7.9,21.3,10.2,31.3,11.8
				C1172.4,235.8,1205.9,240.1,1210.2,240.1z M1018.4,112.3c17.4,0,29.8-3.8,37.4-11.5c7.6-7.6,11.4-20,11.4-37
				c0-19.3-4.2-33.2-12.5-41.9c-8.3-8.6-19.7-13-34.2-13c-6.7,0-11.6,0.5-14.6,1.5c-3,1-5.2,3.4-6.7,7.1c-1.4,3.8-2.3,10-2.5,18.8
				v74.4C1006.4,111.8,1013.6,112.3,1018.4,112.3z"/>
		</g>
	</g>
</g>
<g id="Layer_2">
</g>
</svg>
