<?xml version="1.0" encoding="utf-8"?>
<svg xmlns="http://www.w3.org/2000/svg" style="margin: auto; background: none; display: block; shape-rendering: auto;" width="270" height="65" preserveAspectRatio="xMidYMid">
<style type="text/css">
  text {
    text-anchor: middle; font-size: 65px; opacity: 0;
  }
</style>
<g style="transform-origin: 135px 32.5px; transform: scale(2.6);">
<g transform="translate(135,32.5)">
  <g transform="translate(0,0)"><g class="path" style="transform: matrix(1, 0, 0, 1, 0, 14.925); opacity: 0.05; transform-origin: -34.6262px -2.28548px; animation: 1s linear 0s 1 normal forwards running float-btt-in-98c99843-412c-4021-a3af-bac51cbbdc4a;"><path d="M1.05 0L1.05 0Q1 0 0.99-0.15L0.99-0.15L0.99-0.15Q0.98-0.30 1.05-0.30L1.05-0.30L1.05-0.30Q1.93-0.30 2.34-0.43L2.34-0.43L2.34-0.43Q2.75-0.55 2.90-0.91L2.90-0.91L2.90-0.91Q3.05-1.28 3.05-2.02L3.05-2.02L3.05-13.60L3.05-13.60Q3.05-14.35 2.91-14.70L2.91-14.70L2.91-14.70Q2.78-15.05 2.36-15.19L2.36-15.19L2.36-15.19Q1.95-15.33 1.10-15.33L1.10-15.33L1.10-15.33Q1.03-15.33 1.03-15.48L1.03-15.48L1.03-15.48Q1.03-15.63 1.10-15.63L1.10-15.63L2.20-15.60L2.20-15.60Q3.20-15.55 3.83-15.55L3.83-15.55L3.83-15.55Q4.48-15.55 5.48-15.60L5.48-15.60L6.68-15.63L6.68-15.63Q6.73-15.63 6.73-15.48L6.73-15.48L6.73-15.48Q6.73-15.33 6.68-15.33L6.68-15.33L6.68-15.33Q5.78-15.33 5.36-15.19L5.36-15.19L5.36-15.19Q4.95-15.05 4.81-14.69L4.81-14.69L4.81-14.69Q4.67-14.33 4.65-13.58L4.65-13.58L4.65-2.13L4.65-2.13Q4.67-1.40 4.81-1.06L4.81-1.06L4.81-1.06Q4.95-0.73 5.33-0.60L5.33-0.60L5.33-0.60Q5.70-0.48 6.53-0.48L6.53-0.48L9.28-0.48L9.28-0.48Q10.83-0.48 11.65-1.33L11.65-1.33L11.65-1.33Q12.48-2.18 12.83-3.80L12.83-3.80L12.83-3.80Q12.83-3.88 12.95-3.88L12.95-3.88L12.95-3.88Q13.03-3.88 13.09-3.85L13.09-3.85L13.09-3.85Q13.15-3.83 13.15-3.78L13.15-3.78L13.15-3.78Q12.98-2.15 12.98-0.38L12.98-0.38L12.98-0.38Q12.98-0.18 12.88-0.09L12.88-0.09L12.88-0.09Q12.78 0 12.55 0L12.55 0L1.05 0" fill="#d4af37" stroke="none" stroke-width="none" transform="translate(-41.69561767578125,5.529518178304033)" style="fill: rgb(212, 175, 55);"></path></g><g class="path" style="transform: matrix(1, 0, 0, 1, 0, 14.925); opacity: 0.05; transform-origin: -26.4309px -7.00639px; animation: 1s linear 0.11s 1 normal forwards running float-btt-in-98c99843-412c-4021-a3af-bac51cbbdc4a;"><path d="M14.63-9.13L14.30-15.20L14.30-15.20Q14.28-15.48 14.91-15.74L14.91-15.74L14.91-15.74Q15.55-16 16-16L16-16L16-16Q16.23-16 16.23-15.90L16.23-15.90L14.93-9.15L14.93-9.15Q14.88-9.10 14.75-9.08L14.75-9.08L14.75-9.08Q14.63-9.05 14.63-9.13L14.63-9.13" fill="#d4af37" stroke="none" stroke-width="none" transform="translate(-41.69561767578125,5.529518178304033)" style="fill: rgb(212, 175, 55);"></path></g><g class="path" style="transform: matrix(1, 0, 0, 1, 0, 14.925); opacity: 0.05; transform-origin: -16.8356px -2.44548px; animation: 1s linear 0.22s 1 normal forwards running float-btt-in-98c99843-412c-4021-a3af-bac51cbbdc4a;"><path d="M33.10-0.30L33.10-0.30Q33.17-0.30 33.17-0.15L33.17-0.15L33.17-0.15Q33.17 0 33.10 0L33.10 0L33.10 0Q32.68 0 31.83-0.05L31.83-0.05L31.83-0.05Q30.83-0.10 30.28-0.10L30.28-0.10L30.28-0.10Q29.73-0.10 28.83-0.05L28.83-0.05L28.83-0.05Q28.03 0 27.60 0L27.60 0L27.60 0Q27.50 0 27.50-0.15L27.50-0.15L27.50-0.15Q27.50-0.30 27.60-0.30L27.60-0.30L27.60-0.30Q28.50-0.30 28.88-0.48L28.88-0.48L28.88-0.48Q29.25-0.65 29.25-1.07L29.25-1.07L29.25-1.07Q29.25-1.40 29-2.10L29-2.10L26.75-8.25L22.58-8.25L20.55-3.30L20.55-3.30Q20.08-2.13 20.08-1.48L20.08-1.48L20.08-1.48Q20.08-0.80 20.56-0.55L20.56-0.55L20.56-0.55Q21.05-0.30 22.03-0.30L22.03-0.30L22.03-0.30Q22.13-0.30 22.13-0.15L22.13-0.15L22.13-0.15Q22.13 0 22 0L22 0L22 0Q21.70 0 20.80-0.05L20.80-0.05L20.80-0.05Q19.75-0.10 19.20-0.10L19.20-0.10L19.20-0.10Q18.60-0.10 17.80-0.05L17.80-0.05L17.80-0.05Q17.10 0 16.65 0L16.65 0L16.65 0Q16.55 0 16.55-0.15L16.55-0.15L16.55-0.15Q16.55-0.30 16.65-0.30L16.65-0.30L16.65-0.30Q17.45-0.30 18.24-0.95L18.24-0.95L18.24-0.95Q19.03-1.60 19.68-3.08L19.68-3.08L25.08-15.88L25.08-15.88Q25.13-15.95 25.30-15.95L25.30-15.95L25.30-15.95Q25.53-15.95 25.60-15.85L25.60-15.85L30.65-2.10L30.65-2.10Q30.95-1.33 31.19-0.98L31.19-0.98L31.19-0.98Q31.43-0.63 31.85-0.46L31.85-0.46L31.85-0.46Q32.28-0.30 33.10-0.30L33.10-0.30zM24.78-13.60L22.80-8.78L26.55-8.78L24.78-13.60" fill="#d4af37" stroke="none" stroke-width="none" transform="translate(-41.69561767578125,5.529518178304033)" style="fill: rgb(212, 175, 55);"></path></g><g class="path" style="transform: matrix(1, 0, 0, 1, 0, 14.925); opacity: 0.05; transform-origin: -0.612617px -2.24548px; animation: 1s linear 0.33s 1 normal forwards running float-btt-in-98c99843-412c-4021-a3af-bac51cbbdc4a;"><path d="M49-15.63L49-15.63Q49.13-15.63 49.13-15.48L49.13-15.48L49.13-15.48Q49.13-15.33 49-15.33L49-15.33L49-15.33Q48.17-15.33 47.60-14.93L47.60-14.93L47.60-14.93Q47.02-14.53 46.63-13.40L46.63-13.40L41.57-0.03L41.57-0.03Q41.55 0.08 41.30 0.08L41.30 0.08L41.30 0.08Q41 0.08 40.97-0.03L40.97-0.03L35.13-13.55L35.13-13.55Q34.75-14.53 34.30-14.93L34.30-14.93L34.30-14.93Q33.85-15.33 33.13-15.33L33.13-15.33L33.13-15.33Q33.05-15.33 33.04-15.48L33.04-15.48L33.04-15.48Q33.02-15.63 33.10-15.63L33.10-15.63L34.15-15.60L34.15-15.60Q34.90-15.55 35.20-15.55L35.20-15.55L35.20-15.55Q35.97-15.55 36.92-15.60L36.92-15.60L37.97-15.63L37.97-15.63Q38.07-15.63 38.07-15.48L38.07-15.48L38.07-15.48Q38.07-15.33 37.97-15.33L37.97-15.33L37.97-15.33Q37.27-15.33 36.91-15.15L36.91-15.15L36.91-15.15Q36.55-14.98 36.55-14.53L36.55-14.53L36.55-14.53Q36.55-14.23 36.72-13.80L36.72-13.80L41.85-2.10L46.02-13.55L46.02-13.55Q46.20-14.08 46.20-14.33L46.20-14.33L46.20-14.33Q46.20-14.83 45.75-15.08L45.75-15.08L45.75-15.08Q45.30-15.33 44.32-15.33L44.32-15.33L44.32-15.33Q44.27-15.33 44.27-15.48L44.27-15.48L44.27-15.48Q44.27-15.63 44.32-15.63L44.32-15.63L45.32-15.60L45.32-15.60Q46.17-15.55 46.85-15.55L46.85-15.55L46.85-15.55Q47.30-15.55 47.95-15.60L47.95-15.60L49-15.63" fill="#d4af37" stroke="none" stroke-width="none" transform="translate(-41.69561767578125,5.529518178304033)" style="fill: rgb(212, 175, 55);"></path></g><g class="path" style="transform: matrix(1, 0, 0, 1, 0, 14.925); opacity: 0.05; transform-origin: 16.5594px -2.27048px; animation: 1s linear 0.44s 1 normal forwards running float-btt-in-98c99843-412c-4021-a3af-bac51cbbdc4a;"><path d="M57.78 0.30L57.78 0.30Q55.55 0.30 53.84-0.73L53.84-0.73L53.84-0.73Q52.13-1.75 51.18-3.53L51.18-3.53L51.18-3.53Q50.23-5.30 50.23-7.48L50.23-7.48L50.23-7.48Q50.23-9.85 51.36-11.78L51.36-11.78L51.36-11.78Q52.50-13.70 54.44-14.80L54.44-14.80L54.44-14.80Q56.38-15.90 58.75-15.90L58.75-15.90L58.75-15.90Q61.03-15.90 62.73-14.90L62.73-14.90L62.73-14.90Q64.43-13.90 65.35-12.14L65.35-12.14L65.35-12.14Q66.28-10.38 66.28-8.18L66.28-8.18L66.28-8.18Q66.28-5.70 65.11-3.78L65.11-3.78L65.11-3.78Q63.95-1.85 62.01-0.78L62.01-0.78L62.01-0.78Q60.08 0.30 57.78 0.30L57.78 0.30zM58.88-0.35L58.88-0.35Q60.65-0.35 61.96-1.19L61.96-1.19L61.96-1.19Q63.28-2.02 63.98-3.55L63.98-3.55L63.98-3.55Q64.68-5.08 64.68-7.08L64.68-7.08L64.68-7.08Q64.68-9.38 63.79-11.25L63.79-11.25L63.79-11.25Q62.90-13.13 61.31-14.21L61.31-14.21L61.31-14.21Q59.73-15.30 57.75-15.30L57.75-15.30L57.75-15.30Q56.03-15.30 54.68-14.48L54.68-14.48L54.68-14.48Q53.33-13.65 52.56-12.11L52.56-12.11L52.56-12.11Q51.80-10.58 51.80-8.53L51.80-8.53L51.80-8.53Q51.80-6.25 52.73-4.38L52.73-4.38L52.73-4.38Q53.65-2.50 55.26-1.43L55.26-1.43L55.26-1.43Q56.88-0.35 58.88-0.35L58.88-0.35" fill="#d4af37" stroke="none" stroke-width="none" transform="translate(-41.69561767578125,5.529518178304033)" style="fill: rgb(212, 175, 55);"></path></g><g class="path" style="transform: matrix(1, 0, 0, 1, 0, 14.925); opacity: 0.05; transform-origin: 34.7094px -2.32048px; animation: 1s linear 0.55s 1 normal forwards running float-btt-in-98c99843-412c-4021-a3af-bac51cbbdc4a;"><path d="M84.28-0.30L84.28-0.30Q84.38-0.30 84.38-0.15L84.38-0.15L84.38-0.15Q84.38 0 84.28 0L84.28 0L81.35 0L81.35 0Q80.70 0 78.99-2.15L78.99-2.15L78.99-2.15Q77.28-4.30 74.88-8.18L74.88-8.18L74.88-8.18Q74.10-7.95 73.23-7.95L73.23-7.95L73.23-7.95Q72.85-7.95 72.35-8L72.35-8L72.30-2.02L72.30-2.02Q72.33-1.25 72.48-0.90L72.48-0.90L72.48-0.90Q72.63-0.55 73.04-0.43L73.04-0.43L73.04-0.43Q73.45-0.30 74.38-0.30L74.38-0.30L74.38-0.30Q74.48-0.30 74.48-0.15L74.48-0.15L74.48-0.15Q74.48 0 74.40 0L74.40 0L74.40 0Q73.63 0 73.18-0.03L73.18-0.03L71.48-0.05L69.75-0.03L69.75-0.03Q69.30 0 68.53 0L68.53 0L68.53 0Q68.43 0 68.43-0.15L68.43-0.15L68.43-0.15Q68.43-0.30 68.53-0.30L68.53-0.30L68.53-0.30Q69.48-0.30 69.93-0.44L69.93-0.44L69.93-0.44Q70.38-0.58 70.55-0.93L70.55-0.93L70.55-0.93Q70.73-1.28 70.75-2.02L70.75-2.02L70.75-13.60L70.75-13.60Q70.73-14.35 70.58-14.70L70.58-14.70L70.58-14.70Q70.43-15.05 69.99-15.19L69.99-15.19L69.99-15.19Q69.55-15.33 68.60-15.33L68.60-15.33L68.60-15.33Q68.50-15.33 68.50-15.48L68.50-15.48L68.50-15.48Q68.50-15.63 68.60-15.63L68.60-15.63L69.83-15.60L69.83-15.60Q70.88-15.55 71.50-15.55L71.50-15.55L71.50-15.55Q72.03-15.55 72.44-15.58L72.44-15.58L72.44-15.58Q72.85-15.60 73.10-15.63L73.10-15.63L73.10-15.63Q73.83-15.70 74.38-15.70L74.38-15.70L74.38-15.70Q76.45-15.70 77.55-14.88L77.55-14.88L77.55-14.88Q78.65-14.05 78.65-12.58L78.65-12.58L78.65-12.58Q78.65-11.40 77.96-10.36L77.96-10.36L77.96-10.36Q77.28-9.33 76.10-8.68L76.10-8.68L76.10-8.68Q78.23-5.48 79.64-3.68L79.64-3.68L79.64-3.68Q81.05-1.88 82.15-1.09L82.15-1.09L82.15-1.09Q83.25-0.30 84.28-0.30L84.28-0.30zM72.30-8.60L72.30-8.60Q72.98-8.53 73.65-8.53L73.65-8.53L73.65-8.53Q75.40-8.53 76.18-9.28L76.18-9.28L76.18-9.28Q76.95-10.03 76.95-11.73L76.95-11.73L76.95-11.73Q76.95-13.63 76.13-14.48L76.13-14.48L76.13-14.48Q75.30-15.33 73.90-15.33L73.90-15.33L73.90-15.33Q73.20-15.33 72.90-15.24L72.90-15.24L72.90-15.24Q72.60-15.15 72.46-14.79L72.46-14.79L72.46-14.79Q72.33-14.43 72.30-13.55L72.30-13.55L72.30-8.60" fill="#d4af37" stroke="none" stroke-width="none" transform="translate(-41.69561767578125,5.529518178304033)" style="fill: rgb(212, 175, 55);"></path></g></g>
</g>
</g>
<style id="float-btt-in-98c99843-412c-4021-a3af-bac51cbbdc4a" data-anikit="">@keyframes float-btt-in-98c99843-412c-4021-a3af-bac51cbbdc4a
{
  0% {
    animation-timing-function: cubic-bezier(0.2242,0.7499,0.3142,0.8148);
    transform: translate(0px,14.925px) rotate(0deg) scale(1,1) skewX(0deg) skewY(0deg);
    opacity: 0.05;
  }
  100% {
    transform: translate(0px,0px) rotate(0deg) scale(1,1) skewX(0deg) skewY(0deg);
    opacity: 1;
  }
}</style></svg>